<mxfile host="app.diagrams.net" agent="Mozilla/5.0 (X11; Ubuntu; Linux x86_64; rv:132.0) Gecko/20100101 Firefox/132.0" version="24.8.3" pages="2">
  <diagram name="Page-1" id="KbHkXyiSlK41P2ihJLHx">
    <mxGraphModel dx="574" dy="377" grid="1" gridSize="10" guides="1" tooltips="1" connect="1" arrows="1" fold="1" page="1" pageScale="1" pageWidth="850" pageHeight="1100" math="0" shadow="0">
      <root>
        <mxCell id="0" />
        <mxCell id="1" parent="0" />
        <mxCell id="lvQ9wu5S7EFj-JpDJXvf-1" value="" style="whiteSpace=wrap;html=1;aspect=fixed;fillColor=#4a9fc1;strokeColor=#004C99;" vertex="1" parent="1">
          <mxGeometry x="280" y="280" width="80" height="80" as="geometry" />
        </mxCell>
        <mxCell id="lvQ9wu5S7EFj-JpDJXvf-2" value="" style="ellipse;whiteSpace=wrap;html=1;aspect=fixed;" vertex="1" parent="1">
          <mxGeometry x="330" y="290" width="10" height="10" as="geometry" />
        </mxCell>
        <mxCell id="lvQ9wu5S7EFj-JpDJXvf-3" value="" style="ellipse;whiteSpace=wrap;html=1;aspect=fixed;" vertex="1" parent="1">
          <mxGeometry x="297" y="307" width="10" height="10" as="geometry" />
        </mxCell>
        <mxCell id="lvQ9wu5S7EFj-JpDJXvf-4" value="" style="ellipse;whiteSpace=wrap;html=1;aspect=fixed;fillColor=#3d3846;strokeColor=#ae4132;" vertex="1" parent="1">
          <mxGeometry x="338" y="336" width="10" height="10" as="geometry" />
        </mxCell>
        <mxCell id="lvQ9wu5S7EFj-JpDJXvf-5" value="" style="ellipse;whiteSpace=wrap;html=1;aspect=fixed;" vertex="1" parent="1">
          <mxGeometry x="310" y="340" width="10" height="10" as="geometry" />
        </mxCell>
        <mxCell id="lvQ9wu5S7EFj-JpDJXvf-7" value="" style="whiteSpace=wrap;html=1;aspect=fixed;fillColor=#c0bfbc;strokeColor=#56517e;" vertex="1" parent="1">
          <mxGeometry x="360" y="280" width="80" height="80" as="geometry" />
        </mxCell>
        <mxCell id="lvQ9wu5S7EFj-JpDJXvf-8" value="" style="ellipse;whiteSpace=wrap;html=1;aspect=fixed;" vertex="1" parent="1">
          <mxGeometry x="410" y="290" width="10" height="10" as="geometry" />
        </mxCell>
        <mxCell id="lvQ9wu5S7EFj-JpDJXvf-9" value="" style="ellipse;whiteSpace=wrap;html=1;aspect=fixed;" vertex="1" parent="1">
          <mxGeometry x="377" y="307" width="10" height="10" as="geometry" />
        </mxCell>
        <mxCell id="lvQ9wu5S7EFj-JpDJXvf-10" value="" style="ellipse;whiteSpace=wrap;html=1;aspect=fixed;" vertex="1" parent="1">
          <mxGeometry x="418" y="336" width="10" height="10" as="geometry" />
        </mxCell>
        <mxCell id="lvQ9wu5S7EFj-JpDJXvf-11" value="" style="ellipse;whiteSpace=wrap;html=1;aspect=fixed;" vertex="1" parent="1">
          <mxGeometry x="390" y="340" width="10" height="10" as="geometry" />
        </mxCell>
        <mxCell id="lvQ9wu5S7EFj-JpDJXvf-12" value="" style="whiteSpace=wrap;html=1;aspect=fixed;fillColor=#c0bfbc;strokeColor=#56517e;" vertex="1" parent="1">
          <mxGeometry x="200" y="280" width="80" height="80" as="geometry" />
        </mxCell>
        <mxCell id="lvQ9wu5S7EFj-JpDJXvf-13" value="" style="ellipse;whiteSpace=wrap;html=1;aspect=fixed;" vertex="1" parent="1">
          <mxGeometry x="250" y="290" width="10" height="10" as="geometry" />
        </mxCell>
        <mxCell id="lvQ9wu5S7EFj-JpDJXvf-14" value="" style="ellipse;whiteSpace=wrap;html=1;aspect=fixed;" vertex="1" parent="1">
          <mxGeometry x="217" y="307" width="10" height="10" as="geometry" />
        </mxCell>
        <mxCell id="lvQ9wu5S7EFj-JpDJXvf-15" value="" style="ellipse;whiteSpace=wrap;html=1;aspect=fixed;" vertex="1" parent="1">
          <mxGeometry x="258" y="336" width="10" height="10" as="geometry" />
        </mxCell>
        <mxCell id="lvQ9wu5S7EFj-JpDJXvf-16" value="" style="ellipse;whiteSpace=wrap;html=1;aspect=fixed;" vertex="1" parent="1">
          <mxGeometry x="230" y="340" width="10" height="10" as="geometry" />
        </mxCell>
        <mxCell id="lvQ9wu5S7EFj-JpDJXvf-17" value="" style="whiteSpace=wrap;html=1;aspect=fixed;fillColor=#c0bfbc;strokeColor=#56517e;" vertex="1" parent="1">
          <mxGeometry x="280" y="200" width="80" height="80" as="geometry" />
        </mxCell>
        <mxCell id="lvQ9wu5S7EFj-JpDJXvf-18" value="" style="ellipse;whiteSpace=wrap;html=1;aspect=fixed;" vertex="1" parent="1">
          <mxGeometry x="330" y="210" width="10" height="10" as="geometry" />
        </mxCell>
        <mxCell id="lvQ9wu5S7EFj-JpDJXvf-19" value="" style="ellipse;whiteSpace=wrap;html=1;aspect=fixed;" vertex="1" parent="1">
          <mxGeometry x="297" y="227" width="10" height="10" as="geometry" />
        </mxCell>
        <mxCell id="lvQ9wu5S7EFj-JpDJXvf-20" value="" style="ellipse;whiteSpace=wrap;html=1;aspect=fixed;" vertex="1" parent="1">
          <mxGeometry x="338" y="256" width="10" height="10" as="geometry" />
        </mxCell>
        <mxCell id="lvQ9wu5S7EFj-JpDJXvf-21" value="" style="ellipse;whiteSpace=wrap;html=1;aspect=fixed;" vertex="1" parent="1">
          <mxGeometry x="310" y="260" width="10" height="10" as="geometry" />
        </mxCell>
        <mxCell id="lvQ9wu5S7EFj-JpDJXvf-22" value="" style="whiteSpace=wrap;html=1;aspect=fixed;fillColor=#c0bfbc;strokeColor=#56517e;" vertex="1" parent="1">
          <mxGeometry x="360" y="200" width="80" height="80" as="geometry" />
        </mxCell>
        <mxCell id="lvQ9wu5S7EFj-JpDJXvf-23" value="" style="ellipse;whiteSpace=wrap;html=1;aspect=fixed;" vertex="1" parent="1">
          <mxGeometry x="410" y="210" width="10" height="10" as="geometry" />
        </mxCell>
        <mxCell id="lvQ9wu5S7EFj-JpDJXvf-24" value="" style="ellipse;whiteSpace=wrap;html=1;aspect=fixed;" vertex="1" parent="1">
          <mxGeometry x="377" y="227" width="10" height="10" as="geometry" />
        </mxCell>
        <mxCell id="lvQ9wu5S7EFj-JpDJXvf-25" value="" style="ellipse;whiteSpace=wrap;html=1;aspect=fixed;" vertex="1" parent="1">
          <mxGeometry x="418" y="256" width="10" height="10" as="geometry" />
        </mxCell>
        <mxCell id="lvQ9wu5S7EFj-JpDJXvf-26" value="" style="ellipse;whiteSpace=wrap;html=1;aspect=fixed;" vertex="1" parent="1">
          <mxGeometry x="390" y="260" width="10" height="10" as="geometry" />
        </mxCell>
        <mxCell id="lvQ9wu5S7EFj-JpDJXvf-27" value="" style="whiteSpace=wrap;html=1;aspect=fixed;fillColor=#c0bfbc;strokeColor=#56517e;" vertex="1" parent="1">
          <mxGeometry x="200" y="200" width="80" height="80" as="geometry" />
        </mxCell>
        <mxCell id="lvQ9wu5S7EFj-JpDJXvf-28" value="" style="ellipse;whiteSpace=wrap;html=1;aspect=fixed;" vertex="1" parent="1">
          <mxGeometry x="250" y="210" width="10" height="10" as="geometry" />
        </mxCell>
        <mxCell id="lvQ9wu5S7EFj-JpDJXvf-29" value="" style="ellipse;whiteSpace=wrap;html=1;aspect=fixed;" vertex="1" parent="1">
          <mxGeometry x="217" y="227" width="10" height="10" as="geometry" />
        </mxCell>
        <mxCell id="lvQ9wu5S7EFj-JpDJXvf-30" value="" style="ellipse;whiteSpace=wrap;html=1;aspect=fixed;" vertex="1" parent="1">
          <mxGeometry x="258" y="256" width="10" height="10" as="geometry" />
        </mxCell>
        <mxCell id="lvQ9wu5S7EFj-JpDJXvf-31" value="" style="ellipse;whiteSpace=wrap;html=1;aspect=fixed;" vertex="1" parent="1">
          <mxGeometry x="230" y="260" width="10" height="10" as="geometry" />
        </mxCell>
        <mxCell id="lvQ9wu5S7EFj-JpDJXvf-32" value="" style="whiteSpace=wrap;html=1;aspect=fixed;fillColor=#c0bfbc;strokeColor=#56517e;" vertex="1" parent="1">
          <mxGeometry x="280" y="360" width="80" height="80" as="geometry" />
        </mxCell>
        <mxCell id="lvQ9wu5S7EFj-JpDJXvf-33" value="" style="ellipse;whiteSpace=wrap;html=1;aspect=fixed;" vertex="1" parent="1">
          <mxGeometry x="330" y="370" width="10" height="10" as="geometry" />
        </mxCell>
        <mxCell id="lvQ9wu5S7EFj-JpDJXvf-34" value="" style="ellipse;whiteSpace=wrap;html=1;aspect=fixed;" vertex="1" parent="1">
          <mxGeometry x="297" y="383" width="10" height="10" as="geometry" />
        </mxCell>
        <mxCell id="lvQ9wu5S7EFj-JpDJXvf-35" value="" style="ellipse;whiteSpace=wrap;html=1;aspect=fixed;" vertex="1" parent="1">
          <mxGeometry x="338" y="416" width="10" height="10" as="geometry" />
        </mxCell>
        <mxCell id="lvQ9wu5S7EFj-JpDJXvf-36" value="" style="ellipse;whiteSpace=wrap;html=1;aspect=fixed;" vertex="1" parent="1">
          <mxGeometry x="310" y="420" width="10" height="10" as="geometry" />
        </mxCell>
        <mxCell id="lvQ9wu5S7EFj-JpDJXvf-37" value="" style="whiteSpace=wrap;html=1;aspect=fixed;fillColor=#c0bfbc;strokeColor=#56517e;" vertex="1" parent="1">
          <mxGeometry x="360" y="360" width="80" height="80" as="geometry" />
        </mxCell>
        <mxCell id="lvQ9wu5S7EFj-JpDJXvf-38" value="" style="ellipse;whiteSpace=wrap;html=1;aspect=fixed;" vertex="1" parent="1">
          <mxGeometry x="410" y="370" width="10" height="10" as="geometry" />
        </mxCell>
        <mxCell id="lvQ9wu5S7EFj-JpDJXvf-39" value="" style="ellipse;whiteSpace=wrap;html=1;aspect=fixed;" vertex="1" parent="1">
          <mxGeometry x="377" y="387" width="10" height="10" as="geometry" />
        </mxCell>
        <mxCell id="lvQ9wu5S7EFj-JpDJXvf-40" value="" style="ellipse;whiteSpace=wrap;html=1;aspect=fixed;" vertex="1" parent="1">
          <mxGeometry x="418" y="416" width="10" height="10" as="geometry" />
        </mxCell>
        <mxCell id="lvQ9wu5S7EFj-JpDJXvf-41" value="" style="ellipse;whiteSpace=wrap;html=1;aspect=fixed;" vertex="1" parent="1">
          <mxGeometry x="390" y="420" width="10" height="10" as="geometry" />
        </mxCell>
        <mxCell id="lvQ9wu5S7EFj-JpDJXvf-42" value="" style="whiteSpace=wrap;html=1;aspect=fixed;fillColor=#c0bfbc;strokeColor=#56517e;" vertex="1" parent="1">
          <mxGeometry x="200" y="360" width="80" height="80" as="geometry" />
        </mxCell>
        <mxCell id="lvQ9wu5S7EFj-JpDJXvf-43" value="" style="ellipse;whiteSpace=wrap;html=1;aspect=fixed;" vertex="1" parent="1">
          <mxGeometry x="250" y="370" width="10" height="10" as="geometry" />
        </mxCell>
        <mxCell id="lvQ9wu5S7EFj-JpDJXvf-44" value="" style="ellipse;whiteSpace=wrap;html=1;aspect=fixed;" vertex="1" parent="1">
          <mxGeometry x="217" y="387" width="10" height="10" as="geometry" />
        </mxCell>
        <mxCell id="lvQ9wu5S7EFj-JpDJXvf-45" value="" style="ellipse;whiteSpace=wrap;html=1;aspect=fixed;" vertex="1" parent="1">
          <mxGeometry x="258" y="416" width="10" height="10" as="geometry" />
        </mxCell>
        <mxCell id="lvQ9wu5S7EFj-JpDJXvf-46" value="" style="ellipse;whiteSpace=wrap;html=1;aspect=fixed;" vertex="1" parent="1">
          <mxGeometry x="230" y="420" width="10" height="10" as="geometry" />
        </mxCell>
        <mxCell id="lvQ9wu5S7EFj-JpDJXvf-52" value="&lt;font color=&quot;#a51d2d&quot; style=&quot;font-size: 15px;&quot;&gt;r&lt;/font&gt;&lt;font color=&quot;#a51d2d&quot;&gt;&lt;sub&gt;&lt;i&gt;C&lt;/i&gt;&lt;/sub&gt;&lt;/font&gt;" style="text;html=1;align=center;verticalAlign=middle;resizable=0;points=[];autosize=1;fillColor=none;" vertex="1" parent="1">
          <mxGeometry x="346" y="317" width="40" height="30" as="geometry" />
        </mxCell>
        <mxCell id="lvQ9wu5S7EFj-JpDJXvf-54" value="1" style="text;html=1;align=center;verticalAlign=middle;resizable=0;points=[];autosize=1;strokeColor=none;fillColor=none;" vertex="1" parent="1">
          <mxGeometry x="329" y="315" width="30" height="30" as="geometry" />
        </mxCell>
        <mxCell id="lvQ9wu5S7EFj-JpDJXvf-55" value="2" style="text;html=1;align=center;verticalAlign=middle;resizable=0;points=[];autosize=1;strokeColor=none;fillColor=none;" vertex="1" parent="1">
          <mxGeometry x="310" y="320" width="30" height="30" as="geometry" />
        </mxCell>
        <mxCell id="lvQ9wu5S7EFj-JpDJXvf-56" value="3" style="text;html=1;align=center;verticalAlign=middle;resizable=0;points=[];autosize=1;strokeColor=none;fillColor=none;" vertex="1" parent="1">
          <mxGeometry x="280" y="306" width="30" height="30" as="geometry" />
        </mxCell>
        <mxCell id="lvQ9wu5S7EFj-JpDJXvf-57" value="4" style="text;html=1;align=center;verticalAlign=middle;resizable=0;points=[];autosize=1;strokeColor=none;fillColor=none;" vertex="1" parent="1">
          <mxGeometry x="330" y="275" width="30" height="30" as="geometry" />
        </mxCell>
        <mxCell id="lvQ9wu5S7EFj-JpDJXvf-58" value="1&#39;" style="text;html=1;align=center;verticalAlign=middle;resizable=0;points=[];autosize=1;strokeColor=none;fillColor=none;" vertex="1" parent="1">
          <mxGeometry x="410" y="313" width="30" height="30" as="geometry" />
        </mxCell>
        <mxCell id="lvQ9wu5S7EFj-JpDJXvf-59" value="2&#39;" style="text;html=1;align=center;verticalAlign=middle;resizable=0;points=[];autosize=1;strokeColor=none;fillColor=none;" vertex="1" parent="1">
          <mxGeometry x="390" y="321" width="30" height="30" as="geometry" />
        </mxCell>
        <mxCell id="lvQ9wu5S7EFj-JpDJXvf-60" value="3&#39;" style="text;html=1;align=center;verticalAlign=middle;resizable=0;points=[];autosize=1;strokeColor=none;fillColor=none;" vertex="1" parent="1">
          <mxGeometry x="361" y="307" width="30" height="30" as="geometry" />
        </mxCell>
        <mxCell id="lvQ9wu5S7EFj-JpDJXvf-61" value="4&#39;" style="text;html=1;align=center;verticalAlign=middle;resizable=0;points=[];autosize=1;strokeColor=none;fillColor=none;" vertex="1" parent="1">
          <mxGeometry x="410" y="272" width="30" height="30" as="geometry" />
        </mxCell>
        <mxCell id="lvQ9wu5S7EFj-JpDJXvf-62" value="1&#39;&#39;" style="text;html=1;align=center;verticalAlign=middle;resizable=0;points=[];autosize=1;strokeColor=none;fillColor=none;" vertex="1" parent="1">
          <mxGeometry x="331" y="393" width="30" height="30" as="geometry" />
        </mxCell>
        <mxCell id="lvQ9wu5S7EFj-JpDJXvf-63" value="2&#39;&#39;" style="text;html=1;align=center;verticalAlign=middle;resizable=0;points=[];autosize=1;strokeColor=none;fillColor=none;" vertex="1" parent="1">
          <mxGeometry x="310" y="400" width="30" height="30" as="geometry" />
        </mxCell>
        <mxCell id="lvQ9wu5S7EFj-JpDJXvf-64" value="3&#39;&#39;" style="text;html=1;align=center;verticalAlign=middle;resizable=0;points=[];autosize=1;strokeColor=none;fillColor=none;" vertex="1" parent="1">
          <mxGeometry x="280" y="385" width="30" height="30" as="geometry" />
        </mxCell>
        <mxCell id="lvQ9wu5S7EFj-JpDJXvf-65" value="4&#39;&#39;" style="text;html=1;align=center;verticalAlign=middle;resizable=0;points=[];autosize=1;strokeColor=none;fillColor=none;" vertex="1" parent="1">
          <mxGeometry x="332" y="355" width="30" height="30" as="geometry" />
        </mxCell>
        <mxCell id="lvQ9wu5S7EFj-JpDJXvf-66" value="" style="endArrow=classic;startArrow=classic;html=1;rounded=0;" edge="1" parent="1">
          <mxGeometry width="50" height="50" relative="1" as="geometry">
            <mxPoint x="280" y="455" as="sourcePoint" />
            <mxPoint x="360" y="455" as="targetPoint" />
          </mxGeometry>
        </mxCell>
        <mxCell id="lvQ9wu5S7EFj-JpDJXvf-67" value="&lt;font face=&quot;Times New Roman&quot; style=&quot;font-size: 15px;&quot;&gt;&lt;b&gt;L&lt;/b&gt;&lt;/font&gt;" style="text;html=1;align=center;verticalAlign=middle;resizable=0;points=[];autosize=1;strokeColor=none;fillColor=none;" vertex="1" parent="1">
          <mxGeometry x="307" y="452" width="30" height="30" as="geometry" />
        </mxCell>
        <mxCell id="lvQ9wu5S7EFj-JpDJXvf-68" value="" style="ellipse;whiteSpace=wrap;html=1;aspect=fixed;fillColor=none;opacity=50;strokeColor=#a51d2d;strokeWidth=2;direction=north;rotation=45;dashed=1;" vertex="1" parent="1">
          <mxGeometry x="310.25" y="308.25" width="65.5" height="65.5" as="geometry" />
        </mxCell>
        <mxCell id="lvQ9wu5S7EFj-JpDJXvf-70" value="" style="endArrow=classic;html=1;rounded=0;entryX=1;entryY=0.5;entryDx=0;entryDy=0;fillColor=none;strokeColor=#a51d2d;" edge="1" parent="1" target="lvQ9wu5S7EFj-JpDJXvf-68">
          <mxGeometry width="50" height="50" relative="1" as="geometry">
            <mxPoint x="343" y="341" as="sourcePoint" />
            <mxPoint x="393" y="291" as="targetPoint" />
          </mxGeometry>
        </mxCell>
      </root>
    </mxGraphModel>
  </diagram>
  <diagram id="ztWWD9JjhQHg0PhGz1Zh" name="Page-2">
    <mxGraphModel dx="1434" dy="942" grid="1" gridSize="10" guides="1" tooltips="1" connect="1" arrows="1" fold="1" page="1" pageScale="1" pageWidth="827" pageHeight="1169" math="0" shadow="0">
      <root>
        <mxCell id="0" />
        <mxCell id="1" parent="0" />
        <mxCell id="TG6Cxt_-M5xZa3AUobor-1" value="" style="ellipse;whiteSpace=wrap;html=1;strokeWidth=2;fillWeight=2;hachureGap=8;fillColor=#c64600;fillStyle=dots;sketch=1;strokeColor=#77767b;" vertex="1" parent="1">
          <mxGeometry x="310" y="290" width="60" height="60" as="geometry" />
        </mxCell>
        <mxCell id="TG6Cxt_-M5xZa3AUobor-2" value="" style="endArrow=none;html=1;rounded=0;strokeColor=#77767b;" edge="1" parent="1">
          <mxGeometry width="50" height="50" relative="1" as="geometry">
            <mxPoint x="170" y="330" as="sourcePoint" />
            <mxPoint x="180" y="310" as="targetPoint" />
          </mxGeometry>
        </mxCell>
        <mxCell id="TG6Cxt_-M5xZa3AUobor-3" value="" style="endArrow=none;html=1;rounded=0;strokeColor=#77767b;" edge="1" parent="1">
          <mxGeometry width="50" height="50" relative="1" as="geometry">
            <mxPoint x="190" y="330" as="sourcePoint" />
            <mxPoint x="180" y="310" as="targetPoint" />
          </mxGeometry>
        </mxCell>
        <mxCell id="TG6Cxt_-M5xZa3AUobor-4" value="" style="endArrow=none;html=1;rounded=0;strokeColor=#77767b;" edge="1" parent="1">
          <mxGeometry width="50" height="50" relative="1" as="geometry">
            <mxPoint x="190" y="330" as="sourcePoint" />
            <mxPoint x="200" y="310" as="targetPoint" />
          </mxGeometry>
        </mxCell>
        <mxCell id="TG6Cxt_-M5xZa3AUobor-5" value="" style="endArrow=none;html=1;rounded=0;strokeColor=#77767b;" edge="1" parent="1">
          <mxGeometry width="50" height="50" relative="1" as="geometry">
            <mxPoint x="210" y="330" as="sourcePoint" />
            <mxPoint x="200" y="310" as="targetPoint" />
          </mxGeometry>
        </mxCell>
        <mxCell id="TG6Cxt_-M5xZa3AUobor-6" value="" style="endArrow=none;html=1;rounded=0;strokeColor=#77767b;" edge="1" parent="1">
          <mxGeometry width="50" height="50" relative="1" as="geometry">
            <mxPoint x="210" y="330" as="sourcePoint" />
            <mxPoint x="220" y="310" as="targetPoint" />
          </mxGeometry>
        </mxCell>
        <mxCell id="TG6Cxt_-M5xZa3AUobor-7" value="" style="endArrow=none;html=1;rounded=0;strokeColor=#77767b;" edge="1" parent="1">
          <mxGeometry width="50" height="50" relative="1" as="geometry">
            <mxPoint x="230" y="330" as="sourcePoint" />
            <mxPoint x="220" y="310" as="targetPoint" />
          </mxGeometry>
        </mxCell>
        <mxCell id="TG6Cxt_-M5xZa3AUobor-8" value="" style="endArrow=none;html=1;rounded=0;strokeColor=#77767b;" edge="1" parent="1">
          <mxGeometry width="50" height="50" relative="1" as="geometry">
            <mxPoint x="230" y="330" as="sourcePoint" />
            <mxPoint x="240" y="310" as="targetPoint" />
          </mxGeometry>
        </mxCell>
        <mxCell id="TG6Cxt_-M5xZa3AUobor-9" value="" style="endArrow=none;html=1;rounded=0;strokeColor=#77767b;" edge="1" parent="1">
          <mxGeometry width="50" height="50" relative="1" as="geometry">
            <mxPoint x="250" y="330" as="sourcePoint" />
            <mxPoint x="240" y="310" as="targetPoint" />
          </mxGeometry>
        </mxCell>
        <mxCell id="TG6Cxt_-M5xZa3AUobor-10" value="" style="endArrow=none;html=1;rounded=0;strokeColor=#77767b;" edge="1" parent="1">
          <mxGeometry width="50" height="50" relative="1" as="geometry">
            <mxPoint x="250" y="330" as="sourcePoint" />
            <mxPoint x="260" y="310" as="targetPoint" />
          </mxGeometry>
        </mxCell>
        <mxCell id="TG6Cxt_-M5xZa3AUobor-11" value="" style="endArrow=none;html=1;rounded=0;strokeColor=#77767b;" edge="1" parent="1">
          <mxGeometry width="50" height="50" relative="1" as="geometry">
            <mxPoint x="270" y="330" as="sourcePoint" />
            <mxPoint x="260" y="310" as="targetPoint" />
          </mxGeometry>
        </mxCell>
        <mxCell id="TG6Cxt_-M5xZa3AUobor-12" value="" style="endArrow=none;html=1;rounded=0;strokeColor=#77767b;" edge="1" parent="1">
          <mxGeometry width="50" height="50" relative="1" as="geometry">
            <mxPoint x="270" y="330" as="sourcePoint" />
            <mxPoint x="280" y="310" as="targetPoint" />
          </mxGeometry>
        </mxCell>
        <mxCell id="TG6Cxt_-M5xZa3AUobor-13" value="" style="endArrow=none;html=1;rounded=0;strokeColor=#77767b;" edge="1" parent="1">
          <mxGeometry width="50" height="50" relative="1" as="geometry">
            <mxPoint x="290" y="330" as="sourcePoint" />
            <mxPoint x="280" y="310" as="targetPoint" />
          </mxGeometry>
        </mxCell>
        <mxCell id="TG6Cxt_-M5xZa3AUobor-14" value="" style="endArrow=none;html=1;rounded=0;strokeColor=#77767b;" edge="1" parent="1">
          <mxGeometry width="50" height="50" relative="1" as="geometry">
            <mxPoint x="170" y="330" as="sourcePoint" />
            <mxPoint x="160" y="320" as="targetPoint" />
          </mxGeometry>
        </mxCell>
        <mxCell id="TG6Cxt_-M5xZa3AUobor-15" value="" style="endArrow=none;html=1;rounded=0;strokeColor=#77767b;" edge="1" parent="1">
          <mxGeometry width="50" height="50" relative="1" as="geometry">
            <mxPoint x="290" y="330" as="sourcePoint" />
            <mxPoint x="300" y="310" as="targetPoint" />
          </mxGeometry>
        </mxCell>
        <mxCell id="TG6Cxt_-M5xZa3AUobor-16" value="" style="endArrow=none;html=1;rounded=0;strokeColor=#77767b;" edge="1" parent="1">
          <mxGeometry width="50" height="50" relative="1" as="geometry">
            <mxPoint x="310" y="320" as="sourcePoint" />
            <mxPoint x="300" y="310" as="targetPoint" />
          </mxGeometry>
        </mxCell>
        <mxCell id="TG6Cxt_-M5xZa3AUobor-17" value="" style="endArrow=classic;startArrow=classic;html=1;rounded=0;strokeColor=#77767b;" edge="1" parent="1">
          <mxGeometry width="50" height="50" relative="1" as="geometry">
            <mxPoint x="300" y="371" as="sourcePoint" />
            <mxPoint x="380" y="371" as="targetPoint" />
          </mxGeometry>
        </mxCell>
        <mxCell id="TG6Cxt_-M5xZa3AUobor-18" value="" style="rounded=0;whiteSpace=wrap;html=1;strokeColor=#3d3846;fillColor=#e5a50a;" vertex="1" parent="1">
          <mxGeometry x="120" y="240" width="40" height="160" as="geometry" />
        </mxCell>
      </root>
    </mxGraphModel>
  </diagram>
</mxfile>
